PathFileType	4	(X/Y/Z)	/Users/itak/Documents/Research/Walk-IL/dataset/trc/00146_00007.trc
DataRate	CameraRate	NumFrames	NumMarkers	Units	OrigDataRate	OrigDataStartFrame	OrigNumFrames
100.000000	100.000000	4	53	mm	100.000000	275	550
Frame#	Time	RPSI			LPSI			L3			STRN			T10			C7			CLAV			RBAK			LBAK			LSHO			LUPA			LAEL			LAOL			LWTS			LWPS			LFRA			LIFD			LHPS			LHTS			RSHO			RUPA			RAEL			RAOL			RWTS			RWPS			RFRA			RIFD			RHTS			RHPS			RBHD			LFHD			RFHD			LBHD			LHIP			RHIP			RASI			LASI			LKNE			LTHI			LANK			LTIP			LTOE			LMT1			LMT5			LHEE			RKNE			RTHI			RANK			RTIP			RTOE			RMT1			RMT5			RHEE			
		X1	Y1	Z1	X2	Y2	Z2	X3	Y3	Z3	X4	Y4	Z4	X5	Y5	Z5	X6	Y6	Z6	X7	Y7	Z7	X8	Y8	Z8	X9	Y9	Z9	X10	Y10	Z10	X11	Y11	Z11	X12	Y12	Z12	X13	Y13	Z13	X14	Y14	Z14	X15	Y15	Z15	X16	Y16	Z16	X17	Y17	Z17	X18	Y18	Z18	X19	Y19	Z19	X20	Y20	Z20	X21	Y21	Z21	X22	Y22	Z22	X23	Y23	Z23	X24	Y24	Z24	X25	Y25	Z25	X26	Y26	Z26	X27	Y27	Z27	X28	Y28	Z28	X29	Y29	Z29	X30	Y30	Z30	X31	Y31	Z31	X32	Y32	Z32	X33	Y33	Z33	X34	Y34	Z34	X35	Y35	Z35	X36	Y36	Z36	X37	Y37	Z37	X38	Y38	Z38	X39	Y39	Z39	X40	Y40	Z40	X41	Y41	Z41	X42	Y42	Z42	X43	Y43	Z43	X44	Y44	Z44	X45	Y45	Z45	X46	Y46	Z46	X47	Y47	Z47	X48	Y48	Z48	X49	Y49	Z49	X50	Y50	Z50	X51	Y51	Z51	X52	Y52	Z52	X53	Y53	Z53	

276	2.75	231.9576110839844	1123.500610351562	1091.402587890625	139.3486785888672	1115.742919921875	991.480224609375	177.7812347412109	1155.306274414062	1043.896728515625	334.5083618164062	1359.841064453125	894.7916259765625	150.4548645019531	1308.432006835938	1064.89013671875	159.1859283447266	1600.288940429688	1022.921081542969	300.310791015625	1494.34765625	910.9744262695312	180.1214599609375	1421.407348632812	1131.767211914062	85.63822174072266	1576.0361328125	951.5433959960938	104.0909042358398	1557.854858398438	843.630859375	43.59415435791016	1424.156372070312	810.1049194335938	38.94131469726562	1204.8486328125	791.7774047851562	30.66898536682129	1194.725341796875	879.819091796875	136.4789428710938	943.0377197265625	765.4073486328125	59.14855575561523	920.884033203125	802.8370361328125	46.18776702880859	1088.476928710938	780.1535034179688	153.5137481689453	750.0975952148438	775.4517822265625	77.30526733398438	845.2891235351562	785.0654907226562	136.4905548095703	854.1123046875	750.6263427734375	321.86279296875	1588.877197265625	1119.856811523438	355.4019470214844	1518.362182617188	1179.706176757812	391.5545043945312	1227.369873046875	1211.264282226562	319.0513305664062	1216.531372070312	1147.559326171875	503.9613647460938	986.4046020507812	1114.72509765625	472.3289489746094	972.3768920898438	1189.430419921875	424.8388671875	1156.831909179688	1208.920654296875	526.324462890625	791.6616821289062	1098.891357421875	537.0279541015625	880.1990966796875	1105.8994140625	508.5067443847656	874.1907958984375	1173.160278320312	252.5252685546875	1773.961181640625	1046.140991210938	212.7214202880859	1835.937744140625	837.6888427734375	321.7835083007812	1857.924560546875	904.248291015625	134.7641296386719	1753.399169921875	982.3055419921875	146.0231628417969	1026.506713867188	845.2573852539062	411.7592468261719	1040.2236328125	1097.736083984375	433.4717102050781	1112.246215820312	1004.041442871094	249.8032684326172	1098.38232421875	811.145751953125	328.2997436523438	542.05078125	761.1201782226562	253.7364196777344	681.4486083984375	783.9104614257812	12.3227710723877	190.3950958251953	1012.16015625	140.2618255615234	384.1572265625	881.9080810546875	181.9367828369141	42.92407989501953	973.7787475585938	156.5737762451172	101.7167510986328	1028.2705078125	68.28485870361328	92.57290649414062	957.5547485351562	10.8025016784668	249.4646606445312	1083.420776367188	421.6473388671875	547.3339233398438	1039.68408203125	437.8851013183594	826.9344482421875	1066.579345703125	343.2144165039062	33.65954971313477	1109.488525390625	416.9750671386719	410.9527587890625	1063.069213867188	459.4449157714844	42.80491638183594	898.9155883789062	389.85498046875	36.30456161499023	919.2246704101562	451.0481567382812	42.26712417602539	1025.959716796875	268.8743896484375	34.86531066894531	1117.51171875	
277	2.76	238.2157135009766	1124.056762695312	1087.5947265625	145.1589813232422	1116.379638671875	988.1145629882812	183.7376403808594	1155.832275390625	1040.489501953125	340.1708679199219	1360.21875	890.3872680664062	157.8664093017578	1308.94189453125	1061.98681640625	166.1366577148438	1600.834594726562	1019.793029785156	306.0823669433594	1494.736206054688	906.534423828125	188.1661071777344	1422.114135742188	1128.639526367188	91.81381225585938	1576.54638671875	949.3212890625	109.0819244384766	1558.294799804688	841.2093505859375	47.52330780029297	1424.818969726562	808.738525390625	41.06248092651367	1205.568115234375	791.526611328125	33.68466186523438	1195.936157226562	879.6848754882812	136.8818969726562	943.1578979492188	765.0159912109375	59.9721565246582	921.4986572265625	803.5093383789062	47.48884963989258	1089.0498046875	780.2855834960938	153.26416015625	750.2444458007812	775.7048950195312	77.65673828125	845.6687622070312	785.8756713867188	136.3600769042969	854.1412963867188	750.63916015625	329.6983032226562	1589.68994140625	1115.041137695312	364.0780639648438	1519.278564453125	1174.547729492188	402.8308410644531	1228.469970703125	1205.41796875	329.2921752929688	1217.201904296875	1142.815185546875	516.7353515625	989.3350219726562	1106.059448242188	486.11328125	974.43603515625	1181.041748046875	436.8636474609375	1158.226806640625	1202.330810546875	541.6192016601562	795.0654296875	1088.886352539062	551.1763305664062	883.7045288085938	1096.27001953125	523.4819946289062	876.8981323242188	1163.80224609375	259.3486022949219	1774.495727539062	1041.823120117188	218.2427978515625	1836.32080078125	833.6244506835938	327.8084106445312	1858.23388671875	899.3914794921875	141.1923675537109	1754.057739257812	978.8341064453125	151.3003082275391	1027.647094726562	841.4349975585938	417.5939025878906	1039.971313476562	1093.395385742188	439.5639038085938	1112.177612304688	999.5863037109375	255.0252990722656	1099.299438476562	807.3966064453125	337.6664428710938	545.7366333007812	752.0780639648438	261.5467224121094	684.0943603515625	776.5142822265625	32.19875717163086	184.6901397705078	1001.503967285156	153.9873809814453	382.62060546875	873.4051513671875	204.4970550537109	42.91390228271484	954.1143798828125	178.5537414550781	98.48940277099609	1011.383972167969	89.5948486328125	91.1007080078125	941.5040283203125	30.48958206176758	240.7192077636719	1075.19775390625	424.0406188964844	546.7342529296875	1038.433227539062	442.2947387695312	826.4659423828125	1063.098388671875	343.1819458007812	33.76082992553711	1109.41357421875	418.4865112304688	410.5182189941406	1062.241577148438	459.6590270996094	42.65831756591797	898.9467163085938	389.90771484375	36.31108093261719	919.1985473632812	451.0650329589844	42.25094223022461	1025.958740234375	268.7801513671875	34.8657112121582	1117.354370117188	
278	2.77	244.4093170166016	1124.55810546875	1083.749389648438	150.9111938476562	1116.900512695312	984.7145385742188	189.6273956298828	1156.31103515625	1037.02880859375	345.782470703125	1360.513061523438	885.9556884765625	165.2093353271484	1309.365844726562	1059.016357421875	173.0601654052734	1601.290405273438	1016.597106933594	311.8006591796875	1495.039672851562	902.072509765625	196.1676177978516	1422.740234375	1125.425659179688	97.96246337890625	1576.98291015625	947.035888671875	114.0782089233398	1558.66748046875	838.72314453125	51.49225616455078	1425.423828125	807.2644653320312	43.34817123413086	1206.244018554688	791.154052734375	36.75033950805664	1197.116943359375	879.40673828125	137.5619964599609	943.2632446289062	764.7329711914062	60.95977401733398	922.09716796875	804.0532836914062	49.0068473815918	1089.580688476562	780.3882446289062	153.2464904785156	750.3633422851562	776.0974731445312	78.22803497314453	846.031494140625	786.6011352539062	136.5474090576172	854.1635131835938	750.7494506835938	337.4678344726562	1590.436645507812	1110.163452148438	372.6728820800781	1520.146240234375	1169.332275390625	413.9249877929688	1229.522583007812	1199.525024414062	339.416748046875	1217.8984375	1138.022338867188	529.3399047851562	992.348388671875	1097.217651367188	499.7300109863281	976.5059814453125	1172.433715820312	448.6929321289062	1159.583862304688	1195.667724609375	556.7830200195312	798.6312255859375	1078.448608398438	565.175048828125	887.3460083007812	1086.34033203125	538.3031616210938	879.6580200195312	1154.107788085938	266.0938720703125	1774.960083007812	1037.470825195312	223.7004852294922	1836.625	829.528564453125	333.7549438476562	1858.475708007812	894.5206909179688	147.5711212158203	1754.63037109375	975.318115234375	156.5355224609375	1028.688232421875	837.5833129882812	423.3498229980469	1039.668701171875	1089.0185546875	445.5914916992188	1112.038452148438	995.104248046875	260.2220458984375	1100.12646484375	803.6040649414062	346.4731140136719	549.3390502929688	743.1908569335938	268.9445190429688	686.6646728515625	769.16357421875	52.41051864624023	178.0905914306641	990.2597045898438	167.5558471679688	380.5829162597656	864.7642211914062	227.3103942871094	42.78644943237305	933.7960815429688	200.8846740722656	94.95028686523438	993.7404174804688	111.1262435913086	89.08088684082031	924.9529418945312	50.65442657470703	230.9437408447266	1066.291870117188	426.3907165527344	546.129150390625	1037.203491210938	446.7023315429688	825.9869995117188	1059.560180664062	343.1385803222656	33.86810684204102	1109.328247070312	419.9630737304688	410.0924682617188	1061.454467773438	459.8950805664062	42.52192306518555	898.9899291992188	389.9839477539062	36.35143280029297	919.1646728515625	451.0863647460938	42.22328567504883	1025.95947265625	268.6099853515625	34.78193283081055	1117.154174804688	
279	2.78	250.5503082275391	1124.946044921875	1079.846069335938	156.6107635498047	1117.292724609375	981.2879028320312	195.4598999023438	1156.735961914062	1033.52587890625	351.3428955078125	1360.712036132812	881.4955444335938	172.4825134277344	1309.704833984375	1055.981689453125	179.9452667236328	1601.648803710938	1013.330993652344	317.4672241210938	1495.25	897.5861206054688	204.1096649169922	1423.277709960938	1122.122924804688	104.093132019043	1577.33984375	944.6695556640625	119.086051940918	1558.95703125	836.1586303710938	55.51178741455078	1425.94921875	805.6826171875	45.79476547241211	1206.856811523438	790.6751098632812	39.88425827026367	1198.243774414062	879.0031127929688	138.5066070556641	943.3295288085938	764.530517578125	62.10929489135742	922.6527099609375	804.488525390625	50.74087142944336	1090.049194335938	780.4740600585938	153.4635467529297	750.4308471679688	776.5899658203125	78.99973297119141	846.35888671875	787.2489013671875	137.0262756347656	854.1602783203125	750.9228515625	345.1656799316406	1591.099731445312	1105.22607421875	381.1798706054688	1520.944580078125	1164.060302734375	424.8454284667969	1230.505859375	1193.588500976562	349.4440307617188	1218.591796875	1133.152587890625	541.7559204101562	995.415771484375	1088.206787109375	513.1756591796875	978.5665283203125	1163.61767578125	460.3349304199219	1160.88232421875	1188.931274414062	571.7620239257812	802.3294677734375	1067.598388671875	578.983642578125	891.0890502929688	1076.1220703125	552.9398803710938	882.4466552734375	1144.09375	272.7722778320312	1775.337768554688	1033.085693359375	229.0935974121094	1836.839477539062	825.4041137695312	339.6195373535156	1858.64794921875	889.6385498046875	153.9033203125	1755.093383789062	971.759765625	161.7306671142578	1029.606689453125	833.7133178710938	429.0614624023438	1039.31396484375	1084.585205078125	451.559326171875	1111.8251953125	990.5853271484375	265.3851928710938	1100.845092773438	799.7717895507812	354.7330017089844	552.8128051757812	734.4801025390625	275.9423217773438	689.1173706054688	761.8919067382812	72.93123626708984	170.6981201171875	978.3867797851562	180.9809417724609	378.047119140625	855.9498901367188	250.2501220703125	42.58177185058594	912.9204711914062	223.4823760986328	91.18017578125	975.4232788085938	132.7983093261719	86.55753326416016	907.9286499023438	71.29702758789062	220.2734069824219	1056.636840820312	428.7095642089844	545.5162963867188	1035.96728515625	451.1117858886719	825.4918823242188	1055.94677734375	343.0806274414062	33.98880004882812	1109.228393554688	421.4171752929688	409.6712341308594	1060.6796875	460.1531372070312	42.40088272094727	899.0379638671875	390.0884704589844	36.43172836303711	919.1165161132812	451.1097412109375	42.18564987182617	1025.955932617188	268.390625	34.67062759399414	1116.93212890625	
